<svg id="Ebene_1" data-name="Ebene 1" xmlns="http://www.w3.org/2000/svg" viewBox="0 0 356.28 283.46"><defs><style>.cls-1{fill:#0056A2;}.cls-2{fill:#ffffff;}</style></defs><path class="cls-1" d="M168.88,258.76v-.2c5.63-3,8.9-8.79,8.9-15.53,0-8.08-4.5-14.22-11.05-16.77-3.78-1.53-7.56-1.95-13-1.95H120.43V234h8.69v53.18h-8.69v9.71h34.95a37.64,37.64,0,0,0,10.84-1.23,20.2,20.2,0,0,0,14.42-19.73C180.64,268.28,177,261.22,168.88,258.76ZM142.5,234h11.25a10.75,10.75,0,0,1,6.24,1.62c2.81,1.69,4.27,5.23,4.27,8.81,0,5.53-3.25,10-9,10H142.5Zm24.94,41.47c-.19,4.54-1.57,8.09-5.39,10.14a12,12,0,0,1-6.05,1.53l-13.5,0V264.12h14C164.28,263.87,167.67,269.9,167.44,275.49Z" transform="translate(-120.43 -120.43)"/><path class="cls-1" d="M218.71,264.74h3.22V263c0-6.65-4.12-9-9.44-9-7.63,0-14.46,5-14.46,5l-4.71-9a34.37,34.37,0,0,1,20.27-6.45c13.76,0,21.08,7.27,21.08,20.58V285a2,2,0,0,0,2.21,2.25h4.62V297H229.45c-4.71,0-6.52-2.56-6.52-5.53v-.62a10.43,10.43,0,0,1,.3-2.66H223a17.85,17.85,0,0,1-16.16,10c-8.74,0-17-5.23-17-15.87C189.9,266.37,210.48,264.74,218.71,264.74Zm-8.53,23.75c6.93,0,11.85-7.58,11.85-14.13v-1.74h-2.11c-5,0-17.17.82-17.17,8.7C202.75,285.21,205.46,288.49,210.18,288.49Z" transform="translate(-120.43 -120.43)"/><path class="cls-1" d="M257.08,307.84a9.52,9.52,0,0,0,9-6l1.4-3.28L250,254.5h-6.12v-9.73H269v9.73h-6l9.34,26.41a23.84,23.84,0,0,1,1.1,5.43h.3a28.11,28.11,0,0,1,1.41-5.43l9.24-26.41h-5.93v-9.73h24.2v9.73h-5.83L278,303.74c-3.91,10.35-11.54,14.75-20.28,14.75a23.07,23.07,0,0,1-12.44-3.59l4.11-9.52A13.05,13.05,0,0,0,257.08,307.84Z" transform="translate(-120.43 -120.43)"/><path class="cls-1" d="M333.32,243.54c14.76,0,22.79,11,22.79,24.78,0,1.53-.3,4.4-.3,4.4H320.37c.8,9.63,7.63,14.54,15.36,14.54,8.33,0,14.86-5.53,14.86-5.53l4.92,9.22a32.24,32.24,0,0,1-20.68,7.27c-17,0-27.51-12.5-27.51-27.34C307.32,254.8,318,243.54,333.32,243.54ZM343,265c-.2-7.16-4.52-11.46-9.94-11.46-6.53,0-11.14,4.6-12.35,11.46Z" transform="translate(-120.43 -120.43)"/><path class="cls-1" d="M365.76,287.25h7.43V256.73a2,2,0,0,0-2.21-2.25h-5.72v-9.72h13.35c4.52,0,6.83,1.94,6.83,6.34v3.07a24.38,24.38,0,0,1-.2,3.28h.2c2.31-7.47,8.13-12.72,16-12.72l2.61,0v9.73h-3.13c-10.34,0-14.94,11.58-14.94,21.41v11.37h7.33V297H365.76Z" transform="translate(-120.43 -120.43)"/><path class="cls-1" d="M413.66,287.22h7.43V256.71a2,2,0,0,0-2.21-2.26h-5.72v-9.72h13.45c4.52,0,6.63,2.15,6.63,5.83v2.36a14.82,14.82,0,0,1-.2,2.25h.2a20.54,20.54,0,0,1,18.87-11.67c10.94,0,17.17,6,17.17,19.86v23.86h7.42v9.72H456.63V266c0-6.35-1.71-10.65-8.13-10.65-9.24,0-14.66,9-14.66,18.13v13.72h7.33v9.72H413.66Z" transform="translate(-120.43 -120.43)"/><path class="cls-1" d="M209.06,312.86c.38,4.1.75,8.21,1.16,12.31,1.51,14.79,2.89,29.58,4.51,44.36l2.43,22.18.15,1.38.26,1.75a13.86,13.86,0,0,0,1.25,3.63,9.67,9.67,0,0,0,6.69,5.23,11.55,11.55,0,0,0,7.63-1.31c.48-.28,1.06-.61,1.45-.86l1.17-.76,2.33-1.53q37.29-24.44,76.36-46c6.54-3.54,13.12-7,19.82-10.32s13.3-6.72,20.11-9.82,13.53-6.35,20.38-9.4a32.06,32.06,0,0,0,11.71-10.85H365.6l-17,10.77c-12.55,7.95-25.26,15.65-37.88,23.49q-38,23.28-76.47,45.82l-2.41,1.4-1.2.71c-.4.24-.59.3-.89.48a3.83,3.83,0,0,1-2.48.42c-.62-.23-1.49-1.06-1.48-4.85l-1-22.27-2.07-44.53-.54-11.44Z" transform="translate(-120.43 -120.43)"/><path class="cls-1" d="M392.91,228.9c-.25-6.21-.57-12.41-1.05-18.6-.52-7.41-.92-14.83-1.74-22.21s-1.37-14.8-2.39-22.18-1.82-14.77-3-22.13l-.2-1.38-.19-1.41-.26-1.54a26.84,26.84,0,0,0-2.41-6.93,24.75,24.75,0,0,0-2.33-3.69,23.39,23.39,0,0,0-3.45-3.53,21.26,21.26,0,0,0-9.33-4.45,21.7,21.7,0,0,0-9,.09,24.35,24.35,0,0,0-6.56,2.46l-1.29.76c-.4.25-.94.58-1,.66l-1.12.83-2.26,1.65c-12,8.78-24,17.7-36.19,26.25-6,4.36-12.21,8.5-18.35,12.7l-9.22,6.27-9.35,6.07c-12.41,8.2-25.07,16-37.73,23.75-6.32,3.89-12.7,7.71-19,11.66a29.29,29.29,0,0,0-10.33,11.66,33.17,33.17,0,0,0-1.38,3.24h20.51l.23-.15,19.22-11.3c12.79-7.56,25.54-15.18,38.16-23q37.86-23.5,75.32-47.7l3.44-2.2.09.94,2,22.19,4.1,44.39,1.52,16.86Z" transform="translate(-120.43 -120.43)"/></svg>